<?xml version="1.0" encoding="UTF-8" standalone="no"?>
<!-- Generator: Adobe Illustrator 16.0.0, SVG Export Plug-In . SVG Version: 6.00 Build 0)  -->

<svg
   xmlns:osb="http://www.openswatchbook.org/uri/2009/osb"
   xmlns:dc="http://purl.org/dc/elements/1.1/"
   xmlns:cc="http://creativecommons.org/ns#"
   xmlns:rdf="http://www.w3.org/1999/02/22-rdf-syntax-ns#"
   xmlns:svg="http://www.w3.org/2000/svg"
   xmlns="http://www.w3.org/2000/svg"
   xmlns:sodipodi="http://sodipodi.sourceforge.net/DTD/sodipodi-0.dtd"
   xmlns:inkscape="http://www.inkscape.org/namespaces/inkscape"
   version="1.1"
   id="Capa_1"
   x="0px"
   y="0px"
   width="401.994px"
   height="401.994px"
   viewBox="0 0 401.994 401.994"
   style="enable-background:new 0 0 401.994 401.994;"
   xml:space="preserve"
   inkscape:version="0.91 r13725"
   sodipodi:docname="add.svg"><metadata
     id="metadata3600"><rdf:RDF><cc:Work
         rdf:about=""><dc:format>image/svg+xml</dc:format><dc:type
           rdf:resource="http://purl.org/dc/dcmitype/StillImage" /></cc:Work></rdf:RDF></metadata><defs
     id="defs3598"><linearGradient
       id="linearGradient4408"
       osb:paint="solid"><stop
         style="stop-color:#00b800;stop-opacity:1;"
         offset="0"
         id="stop4410" /></linearGradient></defs><sodipodi:namedview
     pagecolor="#ffffff"
     bordercolor="#666666"
     borderopacity="1"
     objecttolerance="10"
     gridtolerance="10"
     guidetolerance="10"
     inkscape:pageopacity="0"
     inkscape:pageshadow="2"
     inkscape:window-width="1366"
     inkscape:window-height="715"
     id="namedview3596"
     showgrid="false"
     inkscape:zoom="1.3209153"
     inkscape:cx="70.784252"
     inkscape:cy="200.99699"
     inkscape:window-x="0"
     inkscape:window-y="0"
     inkscape:window-maximized="1"
     inkscape:current-layer="Capa_1" /><g
     id="g3562"><path
       d="M394,154.175c-5.331-5.33-11.806-7.994-19.417-7.994H255.811V27.406c0-7.611-2.666-14.084-7.994-19.414   C242.488,2.666,236.02,0,228.398,0h-54.812c-7.612,0-14.084,2.663-19.414,7.993c-5.33,5.33-7.994,11.803-7.994,19.414v118.775   H27.407c-7.611,0-14.084,2.664-19.414,7.994S0,165.973,0,173.589v54.819c0,7.618,2.662,14.086,7.992,19.411   c5.33,5.332,11.803,7.994,19.414,7.994h118.771V374.59c0,7.611,2.664,14.089,7.994,19.417c5.33,5.325,11.802,7.987,19.414,7.987   h54.816c7.617,0,14.086-2.662,19.417-7.987c5.332-5.331,7.994-11.806,7.994-19.417V255.813h118.77   c7.618,0,14.089-2.662,19.417-7.994c5.329-5.325,7.994-11.793,7.994-19.411v-54.819C401.991,165.973,399.332,159.502,394,154.175z"
       id="path3564" /></g><g
     id="g3566" /><g
     id="g3568" /><g
     id="g3570" /><g
     id="g3572" /><g
     id="g3574" /><g
     id="g3576" /><g
     id="g3578" /><g
     id="g3580" /><g
     id="g3582" /><g
     id="g3584" /><g
     id="g3586" /><g
     id="g3588" /><g
     id="g3590" /><g
     id="g3592" /><g
     id="g3594" /><path
     style="fill:#00b400;fill-opacity:1"
     d="m 166.5734,400.75398 c -10.51151,-2.90185 -18.07481,-11.59869 -19.66798,-22.61567 -0.37865,-2.61847 -0.69531,-31.24816 -0.70368,-63.62154 l -0.0152,-58.86071 -60.148274,0 c -62.460411,0 -65.042425,-0.11677 -71.171359,-3.21878 C 10.218114,250.08442 4.2529011,243.493 2.2252482,238.46859 0.46191759,234.09916 0.45423049,233.93553 0.45423049,200.76988 l 0,-33.31024 2.17588931,-4.71065 c 2.5558155,-5.53317 8.5453442,-11.59064 13.9108642,-14.06867 l 3.596568,-1.66105 63.024481,-0.20611 63.024477,-0.20613 0.006,-59.222364 c 0.006,-61.195154 0.22461,-66.229417 3.12399,-71.912668 2.38295,-4.670978 7.95614,-10.1554918 12.67408,-12.472437 l 4.25772,-2.09110001 34.82434,0 c 34.18209,0 34.8902,0.0304274 38.39552,1.64982041 5.00705,2.3131674 10.79794,7.9968266 13.26398,13.0183886 l 2.09111,4.258062 0.20601,63.38626 0.20601,63.386258 63.38626,0.20601 63.38626,0.20601 4.41875,2.23691 c 5.68231,2.87655 11.25975,8.94665 13.34738,14.52635 1.55034,4.14364 1.59014,5.25322 1.37829,38.4178 l -0.21815,34.15094 -1.80411,3.40673 c -2.75467,5.20169 -5.78646,8.69674 -9.75066,11.24056 -7.34418,4.71275 -6.47382,4.6575 -73.37722,4.6575 l -60.76677,0 -0.20603,63.40301 -0.20602,63.40301 -2.12822,4.04076 c -2.83875,5.38983 -7.56791,9.98186 -13.05404,12.67552 l -4.50106,2.20999 -32.55319,0.16043 c -24.29777,0.11975 -33.43069,-0.0818 -36.0134,-0.7948 z"
     id="path3602"
     inkscape:connector-curvature="0" /><path
     style="fill:#00b400;fill-opacity:1;stroke:none;stroke-opacity:1;stroke-width:0;stroke-miterlimit:4;stroke-dasharray:none"
     d="m 166.02125,400.30188 c -6.98619,-2.1328 -13.06041,-7.41312 -16.41493,-14.2695 -1.90015,-3.88379 -2.12047,-5.26826 -2.60941,-16.39746 -0.29372,-6.68554 -0.56214,-35.06577 -0.59651,-63.06719 l -0.0625,-50.91167 -48.640511,-0.0375 C 36.9938,255.57177 21.832256,255.01969 16.350939,252.65651 11.881377,250.72954 5.8998686,244.86004 3.1496582,239.70245 L 1.3626915,236.35127 1.1442265,201.5943 0.92576149,166.83732 2.8583337,162.88729 c 2.437253,-4.98157 8.4885653,-11.17553 13.3002703,-13.6138 l 3.701499,-1.87569 26.332682,-7.6e-4 c 14.482976,-4.7e-4 42.940487,-0.22644 63.238915,-0.50215 l 36.90622,-0.5013 0.0206,-52.30215 c 0.0235,-59.683441 0.54205,-72.948803 3.05423,-78.138285 2.12552,-4.390718 7.66259,-9.9142836 12.64331,-12.6124525 l 3.89509,-2.1100634 35.8057,0.2174364 35.8057,0.2174363 3.50835,2.0624411 c 4.34361,2.5534616 9.78437,8.5103311 11.91713,13.0475841 1.59845,3.400549 1.60823,3.797468 1.61975,65.696899 0.006,34.251624 0.27266,62.686424 0.59174,63.188444 0.44077,0.6935 15.91346,1.0412 64.41001,1.44742 l 63.82988,0.53466 4.28076,2.77159 c 5.23633,3.3903 8.82817,7.38892 11.18638,12.45328 l 1.78566,3.83476 0.008,34.86888 0.008,34.86887 -2.6588,4.49777 c -3.12211,5.28152 -7.43873,9.43148 -12.2155,11.74388 -4.83263,2.33943 -20.20824,2.89745 -81.0009,2.93976 -44.25168,0.0308 -49.36376,0.1573 -49.77609,1.23181 -0.25309,0.65862 -0.45987,29.11613 -0.45987,63.23891 l 0,62.04142 -1.81013,3.57082 c -2.53879,5.00823 -6.88905,9.53591 -12.15077,12.64631 l -4.49777,2.6588 -34.11182,-0.0651 c -18.76151,-0.0358 -34.96351,-0.32505 -36.00445,-0.64284 z"
     id="path4404"
     inkscape:connector-curvature="0" /><path
     style="fill:#00b400;fill-opacity:1"
     d="m 255.71368,86.076679 c 0,-32.68567 0.0932,-46.05708 0.20709,-29.714245 0.11391,16.342835 0.11391,43.085655 0,59.428486 -0.1139,16.34284 -0.20709,2.97143 -0.20709,-29.714241 z"
     id="path4406"
     inkscape:connector-curvature="0" /></svg>