<?xml version="1.0" standalone="no"?>
<!DOCTYPE svg PUBLIC "-//W3C//DTD SVG 20010904//EN"
 "http://www.w3.org/TR/2001/REC-SVG-20010904/DTD/svg10.dtd">
<svg version="1.0" xmlns="http://www.w3.org/2000/svg"
 width="906.000000pt" height="906.000000pt" viewBox="0 0 906.000000 906.000000"
 preserveAspectRatio="xMidYMid meet">
<metadata>
Created by potrace 1.11, written by Peter Selinger 2001-2013
</metadata>
<g transform="translate(0.000000,906.000000) scale(0.100000,-0.100000)"
fill="#000000" stroke="none">
<path d="M6085 8843 c-53 -28 -225 -184 -225 -204 0 -3 -11 -19 -25 -35 -35
-40 -94 -142 -148 -254 -52 -110 -58 -124 -212 -500 -112 -275 -291 -625 -326
-638 -5 -2 -9 -9 -9 -15 0 -7 -18 -30 -40 -52 -21 -22 -39 -46 -40 -53 0 -7
-4 -10 -10 -7 -5 3 -10 2 -10 -3 0 -6 -25 -34 -56 -63 -31 -30 -69 -66 -84
-80 -15 -14 -43 -37 -61 -50 -38 -26 -43 -30 -79 -60 -14 -12 -41 -33 -60 -48
-19 -14 -37 -28 -40 -31 -5 -5 -92 -77 -133 -110 -11 -8 -24 -19 -31 -25 -6
-5 -40 -35 -76 -65 -35 -30 -72 -62 -81 -70 -9 -8 -47 -42 -84 -75 -37 -33
-77 -69 -89 -80 -12 -11 -46 -42 -76 -69 -64 -57 -278 -259 -383 -361 -143
-138 -249 -236 -408 -379 -152 -137 -452 -351 -485 -345 -4 0 -10 -3 -13 -8
-8 -10 -116 -63 -130 -63 -6 0 -11 -4 -11 -10 0 -5 -7 -10 -15 -10 -8 0 -34
-9 -57 -19 -105 -47 -139 -61 -150 -61 -7 0 -25 -6 -40 -14 -25 -13 -92 -38
-113 -42 -5 -1 -30 -7 -55 -14 -25 -7 -56 -14 -70 -15 -14 -1 -50 -5 -80 -9
-67 -7 -219 -15 -443 -21 l-169 -5 -136 -92 c-75 -50 -141 -95 -147 -100 -120
-96 -240 -222 -300 -311 -11 -17 -27 -41 -35 -53 -55 -81 -145 -275 -155 -335
-3 -18 -10 -40 -16 -50 -5 -11 -7 -19 -3 -19 3 0 1 -7 -6 -15 -7 -8 -10 -22
-6 -30 3 -8 2 -15 -3 -15 -4 0 -8 -6 -9 -12 -2 -23 -11 -80 -16 -97 -3 -9 -8
-36 -12 -61 -6 -45 -9 -68 -20 -170 -13 -127 -8 -453 11 -625 2 -16 6 -57 9
-90 4 -33 9 -67 12 -76 2 -9 7 -32 9 -50 3 -19 14 -68 25 -109 11 -41 23 -86
26 -100 3 -14 14 -44 24 -67 10 -24 17 -43 14 -43 -18 0 147 -280 193 -328 10
-10 55 -59 100 -108 l81 -90 89 -3 c94 -3 107 -4 223 -17 41 -4 83 -9 93 -10
9 -1 18 -2 20 -4 1 -1 11 -3 22 -4 28 -3 127 -26 145 -34 8 -3 24 -7 36 -8 35
-4 116 -45 164 -83 25 -19 178 -168 341 -331 163 -162 340 -335 394 -385 54
-49 115 -106 136 -125 21 -19 47 -42 57 -50 11 -8 41 -34 68 -57 51 -43 92
-77 109 -90 37 -29 102 -79 110 -85 79 -59 107 -78 115 -78 6 0 10 -4 10 -8 0
-5 21 -20 48 -33 26 -13 49 -26 52 -29 14 -16 119 -45 200 -56 19 -3 49 -6 65
-9 80 -11 234 -20 360 -20 122 0 193 4 450 22 208 14 307 9 325 -16 32 -44
306 -157 430 -176 130 -20 690 -32 788 -16 134 21 238 78 354 194 120 120 231
299 244 396 4 25 12 51 20 58 19 19 83 45 94 38 6 -4 10 -1 10 4 0 6 3 10 8 9
13 -4 137 25 150 35 6 5 12 7 12 3 0 -9 161 53 205 79 59 35 184 163 188 192
0 4 6 14 14 21 47 47 141 269 164 386 10 53 20 76 43 99 27 27 159 117 171
117 8 0 189 114 214 135 72 60 124 119 157 181 20 37 56 147 60 184 13 108 16
162 19 330 6 274 8 285 69 346 62 61 126 134 126 143 0 6 5 11 10 11 6 0 10 7
10 15 0 8 4 15 9 15 16 0 86 172 96 236 2 16 6 40 9 53 3 13 8 49 11 80 3 31
8 67 11 80 3 13 7 91 9 174 4 131 1 180 -21 302 -15 84 -72 249 -108 309 -33
56 -91 112 -183 178 -93 67 -257 168 -272 168 -6 0 -11 4 -11 10 0 5 -3 9 -7
8 -5 -1 -24 6 -43 17 -19 11 -37 20 -40 20 -3 1 -41 18 -85 39 -44 21 -87 39
-95 41 -8 2 -31 10 -50 18 -39 16 -60 23 -75 27 -5 1 -32 11 -60 22 -27 11
-50 19 -50 18 0 -1 -7 1 -15 4 -65 22 -250 69 -400 102 -19 4 -42 9 -50 11
-13 3 -43 8 -105 17 -11 2 -27 6 -35 9 -8 3 -35 8 -60 11 -25 3 -56 7 -70 10
-14 3 -47 8 -75 11 -27 4 -59 8 -70 10 -11 2 -47 9 -80 14 -147 26 -263 62
-310 96 -66 49 -76 59 -101 100 -35 60 -50 177 -33 255 4 19 10 49 13 65 22
125 180 486 289 663 29 46 57 91 62 101 14 24 136 193 152 211 13 15 81 104
118 155 11 15 25 32 31 39 5 6 38 49 72 96 33 47 65 90 69 95 45 56 209 341
213 367 0 4 10 29 21 55 22 51 50 128 54 153 2 8 4 15 5 15 1 0 3 7 5 15 2 8
8 36 14 62 32 136 32 294 1 409 -7 24 -13 49 -14 54 -4 18 -17 60 -27 83 -5
12 -13 32 -17 45 -18 45 -68 144 -101 197 -33 53 -213 240 -230 240 -5 0 -38
17 -72 38 -61 37 -180 90 -220 97 -11 2 -23 6 -28 10 -13 8 -64 14 -156 19
-61 4 -87 1 -110 -11z"/>
</g>
</svg>
