<?xml version="1.0" encoding="UTF-8" standalone="no"?>
<!-- Generator: Adobe Illustrator 16.0.0, SVG Export Plug-In . SVG Version: 6.00 Build 0)  -->

<svg
   xmlns:osb="http://www.openswatchbook.org/uri/2009/osb"
   xmlns:dc="http://purl.org/dc/elements/1.1/"
   xmlns:cc="http://creativecommons.org/ns#"
   xmlns:rdf="http://www.w3.org/1999/02/22-rdf-syntax-ns#"
   xmlns:svg="http://www.w3.org/2000/svg"
   xmlns="http://www.w3.org/2000/svg"
   xmlns:sodipodi="http://sodipodi.sourceforge.net/DTD/sodipodi-0.dtd"
   xmlns:inkscape="http://www.inkscape.org/namespaces/inkscape"
   version="1.1"
   id="Capa_1"
   x="0px"
   y="0px"
   width="401.994px"
   height="401.994px"
   viewBox="0 0 401.994 401.994"
   style="enable-background:new 0 0 401.994 401.994;"
   xml:space="preserve"
   inkscape:version="0.91 r13725"
   sodipodi:docname="remove.svg"><metadata
     id="metadata3600"><rdf:RDF><cc:Work
         rdf:about=""><dc:format>image/svg+xml</dc:format><dc:type
           rdf:resource="http://purl.org/dc/dcmitype/StillImage" /></cc:Work></rdf:RDF></metadata><defs
     id="defs3598"><linearGradient
       id="linearGradient4408"
       osb:paint="solid"><stop
         style="stop-color:#00b800;stop-opacity:1;"
         offset="0"
         id="stop4410" /></linearGradient></defs><sodipodi:namedview
     pagecolor="#ffffff"
     bordercolor="#666666"
     borderopacity="1"
     objecttolerance="10"
     gridtolerance="10"
     guidetolerance="10"
     inkscape:pageopacity="0"
     inkscape:pageshadow="2"
     inkscape:window-width="1366"
     inkscape:window-height="715"
     id="namedview3596"
     showgrid="false"
     inkscape:zoom="1.3209153"
     inkscape:cx="244.83399"
     inkscape:cy="184.1485"
     inkscape:window-x="0"
     inkscape:window-y="0"
     inkscape:window-maximized="1"
     inkscape:current-layer="Capa_1" /><g
     id="g3562"><path
       d="m 394,154.175 c -5.331,-5.33 -11.806,-7.994 -19.417,-7.994 -283.39821,0.0218 -116.45024,10e-4 -347.176,10e-4 -7.611,0 -14.084,2.664 -19.414,7.994 C 2.663,159.506 0,165.973 0,173.589 l 0,54.819 c 0,7.618 2.662,14.086 7.992,19.411 5.33,5.332 11.803,7.994 19.414,7.994 325.00034,0.11 172.53482,0 347.176,0 7.618,0 14.089,-2.662 19.417,-7.994 5.329,-5.325 7.994,-11.793 7.994,-19.411 l 0,-54.819 c -0.002,-7.616 -2.661,-14.087 -7.993,-19.414 z"
       id="path3564"
       inkscape:connector-curvature="0"
       sodipodi:nodetypes="cccsssccccscc"
       style="fill:#ff0000" /></g><g
     id="g3566" /><g
     id="g3568" /><g
     id="g3570" /><g
     id="g3572" /><g
     id="g3574" /><g
     id="g3576" /><g
     id="g3578" /><g
     id="g3580" /><g
     id="g3582" /><g
     id="g3584" /><g
     id="g3586" /><g
     id="g3588" /><g
     id="g3590" /><g
     id="g3592" /><g
     id="g3594" /></svg>